<svg xmlns="http://www.w3.org/2000/svg" height="100" width="100">
    <g fill="#fffb00" stroke="black" stroke-width="6">
        <circle cx="45" cy="45" r="40" />
    </g>

    <g transform="translate(32,20)">
    <g fill="#bfd8ff"
        stroke="#bfd8ff"
        stroke-width="4"
        stroke-linecap="round"
        stroke-linejoin="round">
        <rect x="0" y="0" width="66" height="25" rx="5"/>
        <path d="M-12.5 12.5 L0 2 L0 23 Z"/>
    </g>
    </g>

    <g transform="translate(42, 24) scale(.85)">
    <g id="abc" stroke-linecap="round" fill="#000">
    <path d="M 3.861 19.791 L 0 19.791 L 7.398 0.459 L 10.827 0.459
    L 18.198 19.791 L 14.243 19.791 L 9.855 7.236 L 9.112 4.833 L 9.032 4.833
    L 8.289 7.223 L 3.861 19.791 Z M 14.337 15.512 L 3.429 15.512
    L 4.442 12.731 L 13.284 12.731 L 14.337 15.512 Z"/>
    <path d="M 28.742 19.791 L 20.493 19.791 L 20.493 0.459 L 28.296 0.459
    Q 30.686 0.459 32.319 1.917 Q 33.953 3.375 33.953 5.562 Q 33.953 7.047
    33.217 8.127 Q 32.481 9.207 31.239 9.761 L 31.239 9.842 Q 32.737 10.301
    33.683 11.502 Q 34.628 12.704 34.628 14.31 Q 34.628 16.632 32.947 18.212
    Q 31.266 19.791 28.742 19.791 Z M 24.084 3.524 L 24.084 16.794 L 28.175 16.794
    Q 29.349 16.794 30.173 15.991 Q 30.996 15.188 30.996 14.027 Q 30.996 12.839
    30.139 12.069 Q 29.282 11.3 28.08 11.3 L 23.004 11.3 L 23.004 8.613
    L 27.729 8.613 Q 28.917 8.613 29.687 7.864 Q 30.456 7.115 30.456 6.062
    Q 30.456 5.009 29.707 4.266 Q 28.958 3.524 27.824 3.524 L 24.084 3.524 Z"/>
    <path d="M 53.933 3.267 L 51.489 5.711 L 51.03 5.225 Q 50.571 4.739 49.916 4.334
    Q 49.262 3.929 48.451 3.706 Q 47.641 3.483 46.683 3.483
    Q 43.929 3.483 42.066 5.306 Q 40.203 7.128 40.203 10.085
    Q 40.203 13.028 42.046 14.897 Q 43.888 16.767 46.67 16.767
    Q 47.655 16.767 48.546 16.49 Q 49.437 16.214 50.213 15.707
    Q 50.99 15.201 51.415 14.715 L 51.84 14.229 L 54.364 16.713
    L 53.71 17.435 Q 53.055 18.158 51.921 18.833 Q 50.787 19.508 49.457 19.879
    Q 48.128 20.25 46.67 20.25 Q 42.336 20.25 39.46 17.361
    Q 36.585 14.472 36.585 10.085 Q 36.585 5.697 39.467 2.849 Q 42.35 0 46.67 0
    Q 48.033 0 49.316 0.358 Q 50.598 0.716 51.671 1.364
    Q 52.745 2.012 53.338 2.639 L 53.933 3.267 Z"/>
    </g>
    </g>



    <g fill="#fff" stroke="#000" stroke-width="4">
        <rect x="20" y="60" width="78" height="38" rx="5"/>
    </g>

    <g transform="translate(30, 67) scale(.6, .6)">
    <g fill="#000">
        <rect x="0.0" y="0.0" width="7.5" height="41.5"/>
        <rect x="7.5" y="0.0" width="18.0" height="7.0"/>
        <rect x="7.5" y="18.0" width="17.0" height="6.5"/>
        <path d="M 36.395 41.528 L 28.101 41.528 L 43.993 0 L 51.359 0
        L 67.193 41.528 L 58.696 41.528 L 49.271 14.558 L 47.676 9.396
        L 47.502 9.396 L 45.907 14.529 L 36.395 41.528 Z"/>
        <path d="M 58.899 32.335 L 35.467 32.335 L 37.642 26.361
        L 56.637 26.361 L 58.899 32.335 Z"/>
        <rect x="67.0" y="0.0" width="32.0" height="7.0"/>
        <rect x="79.0" y="1.0" width="7.5" height="40.5"/>
    </g>
    </g>

</svg>
